<svg xmlns="http://www.w3.org/2000/svg" xmlns:xlink="http://www.w3.org/1999/xlink" width="1931.001" height="522.357" viewBox="0 0 1931.001 522.357"><defs><style>.a,.b,.f{fill:#9cbad4;}.a,.d,.e,.h,.k,.n{stroke:rgba(0,0,0,0);stroke-miterlimit:10;}.a,.b,.c,.d{opacity:0.44;}.c,.g,.j,.m{fill:#fff;}.d,.h,.k,.n{fill:none;}.e{fill:#98b7d3;opacity:0.37;}.f,.g,.h{opacity:0.66;}.i,.j,.k{opacity:0.74;}.i{fill:url(#i);}.l{fill:#b6d1e8;}.o{filter:url(#m);}.p{filter:url(#j);}.q{filter:url(#f);}.r{filter:url(#c);}.s{filter:url(#a);}</style><filter id="a" x="0" y="60.507" width="1118.505" height="461.85" filterUnits="userSpaceOnUse"><feOffset dy="3" input="SourceAlpha"/><feGaussianBlur stdDeviation="3" result="b"/><feFlood flood-opacity="0.161"/><feComposite operator="in" in2="b"/></filter><filter id="c" x="0" y="60.507" width="1118.505" height="461.85" filterUnits="userSpaceOnUse"><feOffset input="SourceAlpha"/><feGaussianBlur stdDeviation="10" result="d"/><feFlood flood-opacity="0.161" result="e"/><feComposite operator="out" in="SourceGraphic" in2="d"/><feComposite operator="in" in="e"/><feComposite operator="in" in2="SourceGraphic"/></filter><filter id="f"><feOffset dy="3" input="SourceAlpha"/><feGaussianBlur stdDeviation="10" result="g"/><feFlood flood-opacity="0.161" result="h"/><feComposite operator="out" in="SourceGraphic" in2="g"/><feComposite operator="in" in="h"/><feComposite operator="in" in2="SourceGraphic"/></filter><linearGradient id="i" x1="0.5" x2="0.5" y2="1" gradientUnits="objectBoundingBox"><stop offset="0" stop-color="#6696be"/><stop offset="1" stop-color="#fff"/></linearGradient><filter id="j"><feOffset input="SourceAlpha"/><feGaussianBlur stdDeviation="6" result="k"/><feFlood flood-opacity="0.161" result="l"/><feComposite operator="out" in="SourceGraphic" in2="k"/><feComposite operator="in" in="l"/><feComposite operator="in" in2="SourceGraphic"/></filter><filter id="m"><feOffset dy="3" input="SourceAlpha"/><feGaussianBlur stdDeviation="10" result="n"/><feFlood flood-opacity="0.161" result="o"/><feComposite operator="out" in="SourceGraphic" in2="n"/><feComposite operator="in" in="o"/><feComposite operator="in" in2="SourceGraphic"/></filter></defs><g transform="translate(10 -570.642)"><g data-type="innerShadowGroup"><g class="s" transform="matrix(1, 0, 0, 1, -10, 570.64)"><path class="a" d="M-3271.366,1737.5H-3947.5V1298.463c.632-.128,1.264-.252,1.882-.37a192.731,192.731,0,0,1,36.167-3.444,193.579,193.579,0,0,1,49.1,6.371,204.028,204.028,0,0,1,45.789,18.241,217.589,217.589,0,0,1,40.759,28.807,229.466,229.466,0,0,1,34.012,38.066,103.211,103.211,0,0,1,29.342-10.508,103.277,103.277,0,0,1,19.378-1.845,103.8,103.8,0,0,1,27.38,3.7,109.707,109.707,0,0,1,25.41,10.574,117.077,117.077,0,0,1,22.391,16.662,123.224,123.224,0,0,1,18.328,21.961,99.259,99.259,0,0,1,16.523-11.728,117.6,117.6,0,0,1,19.633-8.851,134.773,134.773,0,0,1,22.183-5.59,149.254,149.254,0,0,1,24.171-1.948c3.745,0,7.558.138,11.333.41a156.221,156.221,0,0,1,32.425,5.8,143.094,143.094,0,0,1,28.63,11.777c17.6,9.641,31.729,22.506,40.845,37.2a70.256,70.256,0,0,1,19.324-6.828,70.2,70.2,0,0,1,13.169-1.253,73.652,73.652,0,0,1,40.292,12.312,82.461,82.461,0,0,1,9.587-12.191,77.965,77.965,0,0,1,11.662-10.047,73.842,73.842,0,0,1,28.666-12.145,74.484,74.484,0,0,1,13.979-1.33,75.091,75.091,0,0,1,24.8,4.24,80.9,80.9,0,0,1,22.187,11.953,87.216,87.216,0,0,1,18.046,18.514,91.814,91.814,0,0,1,12.372,23.925,74.9,74.9,0,0,1,19.774-31.758,67.546,67.546,0,0,1,15.119-10.766,65.61,65.61,0,0,1,17.932-6.227,66.135,66.135,0,0,1,12.412-1.182,66.879,66.879,0,0,1,24.485,4.675,72.8,72.8,0,0,1,21.4,13.078,78.419,78.419,0,0,1,16.384,20.06,82.579,82.579,0,0,1,9.456,25.62c.038.208.066.424.089.608l0,.031c.027.216.057.445.1.668,16.486-2.226,32.749-3.924,48.333-5.048,15.291-1.1,30.059-1.664,43.894-1.664a402.023,402.023,0,0,1,43.106,2.125,202.477,202.477,0,0,1,33.915,6.284c9.676,2.8,17.385,6.274,22.914,10.313,5.691,4.158,9.089,8.939,10.1,14.211,1.373,7.168-1.669,15.046-9.042,23.416-7.13,8.094-18.159,16.491-32.779,24.958-14.47,8.382-32.084,16.62-52.352,24.484a680.139,680.139,0,0,1-67.766,21.989,73.213,73.213,0,0,1-7.95,15.334,68.876,68.876,0,0,1-11.19,12.761,64.714,64.714,0,0,1-14.006,9.5,63.21,63.21,0,0,1-16.4,5.547,63.294,63.294,0,0,1-11.891,1.133,64.044,64.044,0,0,1-20.455-3.379,69.029,69.029,0,0,1-18.434-9.534,100.06,100.06,0,0,1-10.557,21.72,93.726,93.726,0,0,1-15.256,18.118,87.667,87.667,0,0,1-19.344,13.49,85.337,85.337,0,0,1-22.821,7.835,85.362,85.362,0,0,1-16.027,1.527,86.521,86.521,0,0,1-26.906-4.326,93.644,93.644,0,0,1-24.382-12.2,83.382,83.382,0,0,1-9.472,23.944,76.977,76.977,0,0,1-16.02,19.261Z" transform="translate(3957 -1227.64)"/></g><path class="b" d="M-3271.366,1737.5H-3947.5V1298.463c.632-.128,1.264-.252,1.882-.37a192.731,192.731,0,0,1,36.167-3.444,193.579,193.579,0,0,1,49.1,6.371,204.028,204.028,0,0,1,45.789,18.241,217.589,217.589,0,0,1,40.759,28.807,229.466,229.466,0,0,1,34.012,38.066,103.211,103.211,0,0,1,29.342-10.508,103.277,103.277,0,0,1,19.378-1.845,103.8,103.8,0,0,1,27.38,3.7,109.707,109.707,0,0,1,25.41,10.574,117.077,117.077,0,0,1,22.391,16.662,123.224,123.224,0,0,1,18.328,21.961,99.259,99.259,0,0,1,16.523-11.728,117.6,117.6,0,0,1,19.633-8.851,134.773,134.773,0,0,1,22.183-5.59,149.254,149.254,0,0,1,24.171-1.948c3.745,0,7.558.138,11.333.41a156.221,156.221,0,0,1,32.425,5.8,143.094,143.094,0,0,1,28.63,11.777c17.6,9.641,31.729,22.506,40.845,37.2a70.256,70.256,0,0,1,19.324-6.828,70.2,70.2,0,0,1,13.169-1.253,73.652,73.652,0,0,1,40.292,12.312,82.461,82.461,0,0,1,9.587-12.191,77.965,77.965,0,0,1,11.662-10.047,73.842,73.842,0,0,1,28.666-12.145,74.484,74.484,0,0,1,13.979-1.33,75.091,75.091,0,0,1,24.8,4.24,80.9,80.9,0,0,1,22.187,11.953,87.216,87.216,0,0,1,18.046,18.514,91.814,91.814,0,0,1,12.372,23.925,74.9,74.9,0,0,1,19.774-31.758,67.546,67.546,0,0,1,15.119-10.766,65.61,65.61,0,0,1,17.932-6.227,66.135,66.135,0,0,1,12.412-1.182,66.879,66.879,0,0,1,24.485,4.675,72.8,72.8,0,0,1,21.4,13.078,78.419,78.419,0,0,1,16.384,20.06,82.579,82.579,0,0,1,9.456,25.62c.038.208.066.424.089.608l0,.031c.027.216.057.445.1.668,16.486-2.226,32.749-3.924,48.333-5.048,15.291-1.1,30.059-1.664,43.894-1.664a402.023,402.023,0,0,1,43.106,2.125,202.477,202.477,0,0,1,33.915,6.284c9.676,2.8,17.385,6.274,22.914,10.313,5.691,4.158,9.089,8.939,10.1,14.211,1.373,7.168-1.669,15.046-9.042,23.416-7.13,8.094-18.159,16.491-32.779,24.958-14.47,8.382-32.084,16.62-52.352,24.484a680.139,680.139,0,0,1-67.766,21.989,73.213,73.213,0,0,1-7.95,15.334,68.876,68.876,0,0,1-11.19,12.761,64.714,64.714,0,0,1-14.006,9.5,63.21,63.21,0,0,1-16.4,5.547,63.294,63.294,0,0,1-11.891,1.133,64.044,64.044,0,0,1-20.455-3.379,69.029,69.029,0,0,1-18.434-9.534,100.06,100.06,0,0,1-10.557,21.72,93.726,93.726,0,0,1-15.256,18.118,87.667,87.667,0,0,1-19.344,13.49,85.337,85.337,0,0,1-22.821,7.835,85.362,85.362,0,0,1-16.027,1.527,86.521,86.521,0,0,1-26.906-4.326,93.644,93.644,0,0,1-24.382-12.2,83.382,83.382,0,0,1-9.472,23.944,76.977,76.977,0,0,1-16.02,19.261Z" transform="translate(3947 -657)"/><g class="r" transform="matrix(1, 0, 0, 1, -10, 570.64)"><path class="c" d="M-3271.366,1737.5H-3947.5V1298.463c.632-.128,1.264-.252,1.882-.37a192.731,192.731,0,0,1,36.167-3.444,193.579,193.579,0,0,1,49.1,6.371,204.028,204.028,0,0,1,45.789,18.241,217.589,217.589,0,0,1,40.759,28.807,229.466,229.466,0,0,1,34.012,38.066,103.211,103.211,0,0,1,29.342-10.508,103.277,103.277,0,0,1,19.378-1.845,103.8,103.8,0,0,1,27.38,3.7,109.707,109.707,0,0,1,25.41,10.574,117.077,117.077,0,0,1,22.391,16.662,123.224,123.224,0,0,1,18.328,21.961,99.259,99.259,0,0,1,16.523-11.728,117.6,117.6,0,0,1,19.633-8.851,134.773,134.773,0,0,1,22.183-5.59,149.254,149.254,0,0,1,24.171-1.948c3.745,0,7.558.138,11.333.41a156.221,156.221,0,0,1,32.425,5.8,143.094,143.094,0,0,1,28.63,11.777c17.6,9.641,31.729,22.506,40.845,37.2a70.256,70.256,0,0,1,19.324-6.828,70.2,70.2,0,0,1,13.169-1.253,73.652,73.652,0,0,1,40.292,12.312,82.461,82.461,0,0,1,9.587-12.191,77.965,77.965,0,0,1,11.662-10.047,73.842,73.842,0,0,1,28.666-12.145,74.484,74.484,0,0,1,13.979-1.33,75.091,75.091,0,0,1,24.8,4.24,80.9,80.9,0,0,1,22.187,11.953,87.216,87.216,0,0,1,18.046,18.514,91.814,91.814,0,0,1,12.372,23.925,74.9,74.9,0,0,1,19.774-31.758,67.546,67.546,0,0,1,15.119-10.766,65.61,65.61,0,0,1,17.932-6.227,66.135,66.135,0,0,1,12.412-1.182,66.879,66.879,0,0,1,24.485,4.675,72.8,72.8,0,0,1,21.4,13.078,78.419,78.419,0,0,1,16.384,20.06,82.579,82.579,0,0,1,9.456,25.62c.038.208.066.424.089.608l0,.031c.027.216.057.445.1.668,16.486-2.226,32.749-3.924,48.333-5.048,15.291-1.1,30.059-1.664,43.894-1.664a402.023,402.023,0,0,1,43.106,2.125,202.477,202.477,0,0,1,33.915,6.284c9.676,2.8,17.385,6.274,22.914,10.313,5.691,4.158,9.089,8.939,10.1,14.211,1.373,7.168-1.669,15.046-9.042,23.416-7.13,8.094-18.159,16.491-32.779,24.958-14.47,8.382-32.084,16.62-52.352,24.484a680.139,680.139,0,0,1-67.766,21.989,73.213,73.213,0,0,1-7.95,15.334,68.876,68.876,0,0,1-11.19,12.761,64.714,64.714,0,0,1-14.006,9.5,63.21,63.21,0,0,1-16.4,5.547,63.294,63.294,0,0,1-11.891,1.133,64.044,64.044,0,0,1-20.455-3.379,69.029,69.029,0,0,1-18.434-9.534,100.06,100.06,0,0,1-10.557,21.72,93.726,93.726,0,0,1-15.256,18.118,87.667,87.667,0,0,1-19.344,13.49,85.337,85.337,0,0,1-22.821,7.835,85.362,85.362,0,0,1-16.027,1.527,86.521,86.521,0,0,1-26.906-4.326,93.644,93.644,0,0,1-24.382-12.2,83.382,83.382,0,0,1-9.472,23.944,76.977,76.977,0,0,1-16.02,19.261Z" transform="translate(3957 -1227.64)"/></g><path class="d" d="M-3271.366,1737.5H-3947.5V1298.463c.632-.128,1.264-.252,1.882-.37a192.731,192.731,0,0,1,36.167-3.444,193.579,193.579,0,0,1,49.1,6.371,204.028,204.028,0,0,1,45.789,18.241,217.589,217.589,0,0,1,40.759,28.807,229.466,229.466,0,0,1,34.012,38.066,103.211,103.211,0,0,1,29.342-10.508,103.277,103.277,0,0,1,19.378-1.845,103.8,103.8,0,0,1,27.38,3.7,109.707,109.707,0,0,1,25.41,10.574,117.077,117.077,0,0,1,22.391,16.662,123.224,123.224,0,0,1,18.328,21.961,99.259,99.259,0,0,1,16.523-11.728,117.6,117.6,0,0,1,19.633-8.851,134.773,134.773,0,0,1,22.183-5.59,149.254,149.254,0,0,1,24.171-1.948c3.745,0,7.558.138,11.333.41a156.221,156.221,0,0,1,32.425,5.8,143.094,143.094,0,0,1,28.63,11.777c17.6,9.641,31.729,22.506,40.845,37.2a70.256,70.256,0,0,1,19.324-6.828,70.2,70.2,0,0,1,13.169-1.253,73.652,73.652,0,0,1,40.292,12.312,82.461,82.461,0,0,1,9.587-12.191,77.965,77.965,0,0,1,11.662-10.047,73.842,73.842,0,0,1,28.666-12.145,74.484,74.484,0,0,1,13.979-1.33,75.091,75.091,0,0,1,24.8,4.24,80.9,80.9,0,0,1,22.187,11.953,87.216,87.216,0,0,1,18.046,18.514,91.814,91.814,0,0,1,12.372,23.925,74.9,74.9,0,0,1,19.774-31.758,67.546,67.546,0,0,1,15.119-10.766,65.61,65.61,0,0,1,17.932-6.227,66.135,66.135,0,0,1,12.412-1.182,66.879,66.879,0,0,1,24.485,4.675,72.8,72.8,0,0,1,21.4,13.078,78.419,78.419,0,0,1,16.384,20.06,82.579,82.579,0,0,1,9.456,25.62c.038.208.066.424.089.608l0,.031c.027.216.057.445.1.668,16.486-2.226,32.749-3.924,48.333-5.048,15.291-1.1,30.059-1.664,43.894-1.664a402.023,402.023,0,0,1,43.106,2.125,202.477,202.477,0,0,1,33.915,6.284c9.676,2.8,17.385,6.274,22.914,10.313,5.691,4.158,9.089,8.939,10.1,14.211,1.373,7.168-1.669,15.046-9.042,23.416-7.13,8.094-18.159,16.491-32.779,24.958-14.47,8.382-32.084,16.62-52.352,24.484a680.139,680.139,0,0,1-67.766,21.989,73.213,73.213,0,0,1-7.95,15.334,68.876,68.876,0,0,1-11.19,12.761,64.714,64.714,0,0,1-14.006,9.5,63.21,63.21,0,0,1-16.4,5.547,63.294,63.294,0,0,1-11.891,1.133,64.044,64.044,0,0,1-20.455-3.379,69.029,69.029,0,0,1-18.434-9.534,100.06,100.06,0,0,1-10.557,21.72,93.726,93.726,0,0,1-15.256,18.118,87.667,87.667,0,0,1-19.344,13.49,85.337,85.337,0,0,1-22.821,7.835,85.362,85.362,0,0,1-16.027,1.527,86.521,86.521,0,0,1-26.906-4.326,93.644,93.644,0,0,1-24.382-12.2,83.382,83.382,0,0,1-9.472,23.944,76.977,76.977,0,0,1-16.02,19.261Z" transform="translate(3947 -657)"/></g><path class="e" d="M-3704.5,1475.359h-761.069a87.1,87.1,0,0,1-6.526-14.23,77.659,77.659,0,0,1-14.576,14.23h-68.7c-.231-.171-.47-.35-.729-.547a77.772,77.772,0,0,1-14.212-14.189,96.319,96.319,0,0,1-11.168-18.393,59.821,59.821,0,0,1-7.748,8.373,50.206,50.206,0,0,1-8.854,6.324,41.154,41.154,0,0,1-20.224,5.391,40.422,40.422,0,0,1-13.251-2.248,45.717,45.717,0,0,1-12.009-6.366,56.486,56.486,0,0,1-10.349-9.915,69.476,69.476,0,0,1-8.263-12.894,432.434,432.434,0,0,1-54.624-8.414,249.881,249.881,0,0,1-43.289-13.5c-12.325-5.291-21.915-11.158-28.5-17.44-6.813-6.5-10.267-13.307-10.267-20.245,0-7.315,3.827-14.476,11.376-21.282,7.292-6.578,17.868-12.666,31.431-18.095,13.458-5.386,29.423-9.953,47.452-13.572a462.266,462.266,0,0,1,59.429-7.714c0-.171-.011-.345-.019-.5l0-.043v-.032c-.011-.219-.022-.451-.022-.681a94.229,94.229,0,0,1,4.3-28.484,83.489,83.489,0,0,1,5.052-12.431,73.341,73.341,0,0,1,6.69-10.83,62.5,62.5,0,0,1,8.109-8.937,52.511,52.511,0,0,1,9.307-6.747,42.949,42.949,0,0,1,21.33-5.751,41.989,41.989,0,0,1,14.515,2.605,48.24,48.24,0,0,1,13.039,7.35c8.071,6.311,14.858,15.344,19.625,26.122a101.665,101.665,0,0,1,7.124-27.6,82.575,82.575,0,0,1,13.515-22.159,61.065,61.065,0,0,1,18.451-14.744,48.059,48.059,0,0,1,21.929-5.353,48.2,48.2,0,0,1,23.519,6.213,58.656,58.656,0,0,1,10.312,7.294,69.879,69.879,0,0,1,9.05,9.667,59.059,59.059,0,0,1,17.754-14.566,45.468,45.468,0,0,1,21.207-5.32,45.024,45.024,0,0,1,15.662,2.92,104.985,104.985,0,0,1,25.586-42.05,111.345,111.345,0,0,1,20.015-16.116,107.974,107.974,0,0,1,23.766-11.212,95.986,95.986,0,0,1,30.013-4.965,81.571,81.571,0,0,1,24.372,3.633,71.787,71.787,0,0,1,20.858,10.41,125.319,125.319,0,0,1,12.958-27.465,100.587,100.587,0,0,1,18.091-21.455c14-12.393,30.327-18.944,47.2-18.944a66.054,66.054,0,0,1,23.792,4.567,229.328,229.328,0,0,1,24.613-48.326,184.136,184.136,0,0,1,33.321-37.614,143.98,143.98,0,0,1,40.2-24.4A122.989,122.989,0,0,1-3998.665,966a122.85,122.85,0,0,1,39.88,6.688,138.6,138.6,0,0,1,36.2,18.953,170.515,170.515,0,0,1,31.275,29.551,209.626,209.626,0,0,1,25.112,38.482,74.681,74.681,0,0,1,19.8-10.963,64.26,64.26,0,0,1,21.97-3.9c16.98,0,33.349,6.72,47.336,19.434a100.34,100.34,0,0,1,17.942,21.953,124.7,124.7,0,0,1,12.578,28.036,64.336,64.336,0,0,1,15.241-6.923,57.286,57.286,0,0,1,16.5-2.445,57.768,57.768,0,0,1,10.332.934v369.562Z" transform="translate(5625 -394.858)"/><g data-type="innerShadowGroup"><path class="f" d="M-557.084,1923.5H-1226.5V1610.671a140.2,140.2,0,0,1,17.065,8.362,146.766,146.766,0,0,1,28.2,21.249,156.132,156.132,0,0,1,22.835,27.713,134.872,134.872,0,0,1,19.527-19.3,126.962,126.962,0,0,1,22.864-14.659,120.55,120.55,0,0,1,25.584-9.311,119.046,119.046,0,0,1,27.687-3.26,120.652,120.652,0,0,1,70.4,22.812,133.118,133.118,0,0,1,27.067,25.857,142.173,142.173,0,0,1,19.5,33.129,206.4,206.4,0,0,1,24.562-5.007,185.121,185.121,0,0,1,25.479-1.793,193.89,193.89,0,0,1,72.065,13.834,201.522,201.522,0,0,1,32.248,16.37,210.771,210.771,0,0,1,28.972,21.85,220.446,220.446,0,0,1,25.128,26.717A228.774,228.774,0,0,1-716.6,1806.2a235.336,235.336,0,0,1,15.739,34.6,240.951,240.951,0,0,1,10.194,37.621c.114.214.241.429.372.65l.009.017c.085.142.2.33.3.526a84.387,84.387,0,0,1,23.865-13.63,79.554,79.554,0,0,1,27.6-4.93,80.148,80.148,0,0,1,26.911,4.638,83.662,83.662,0,0,1,23.451,12.933,90.47,90.47,0,0,1,18.629,19.761,96.184,96.184,0,0,1,12.444,25.113Z" transform="translate(1226 -843)"/><g class="q" transform="matrix(1, 0, 0, 1, -10, 570.64)"><path class="g" d="M-557.084,1923.5H-1226.5V1610.671a140.2,140.2,0,0,1,17.065,8.362,146.766,146.766,0,0,1,28.2,21.249,156.132,156.132,0,0,1,22.835,27.713,134.872,134.872,0,0,1,19.527-19.3,126.962,126.962,0,0,1,22.864-14.659,120.55,120.55,0,0,1,25.584-9.311,119.046,119.046,0,0,1,27.687-3.26,120.652,120.652,0,0,1,70.4,22.812,133.118,133.118,0,0,1,27.067,25.857,142.173,142.173,0,0,1,19.5,33.129,206.4,206.4,0,0,1,24.562-5.007,185.121,185.121,0,0,1,25.479-1.793,193.89,193.89,0,0,1,72.065,13.834,201.522,201.522,0,0,1,32.248,16.37,210.771,210.771,0,0,1,28.972,21.85,220.446,220.446,0,0,1,25.128,26.717A228.774,228.774,0,0,1-716.6,1806.2a235.336,235.336,0,0,1,15.739,34.6,240.951,240.951,0,0,1,10.194,37.621c.114.214.241.429.372.65l.009.017c.085.142.2.33.3.526a84.387,84.387,0,0,1,23.865-13.63,79.554,79.554,0,0,1,27.6-4.93,80.148,80.148,0,0,1,26.911,4.638,83.662,83.662,0,0,1,23.451,12.933,90.47,90.47,0,0,1,18.629,19.761,96.184,96.184,0,0,1,12.444,25.113Z" transform="translate(1236 -1413.64)"/></g><path class="h" d="M-557.084,1923.5H-1226.5V1610.671a140.2,140.2,0,0,1,17.065,8.362,146.766,146.766,0,0,1,28.2,21.249,156.132,156.132,0,0,1,22.835,27.713,134.872,134.872,0,0,1,19.527-19.3,126.962,126.962,0,0,1,22.864-14.659,120.55,120.55,0,0,1,25.584-9.311,119.046,119.046,0,0,1,27.687-3.26,120.652,120.652,0,0,1,70.4,22.812,133.118,133.118,0,0,1,27.067,25.857,142.173,142.173,0,0,1,19.5,33.129,206.4,206.4,0,0,1,24.562-5.007,185.121,185.121,0,0,1,25.479-1.793,193.89,193.89,0,0,1,72.065,13.834,201.522,201.522,0,0,1,32.248,16.37,210.771,210.771,0,0,1,28.972,21.85,220.446,220.446,0,0,1,25.128,26.717A228.774,228.774,0,0,1-716.6,1806.2a235.336,235.336,0,0,1,15.739,34.6,240.951,240.951,0,0,1,10.194,37.621c.114.214.241.429.372.65l.009.017c.085.142.2.33.3.526a84.387,84.387,0,0,1,23.865-13.63,79.554,79.554,0,0,1,27.6-4.93,80.148,80.148,0,0,1,26.911,4.638,83.662,83.662,0,0,1,23.451,12.933,90.47,90.47,0,0,1,18.629,19.761,96.184,96.184,0,0,1,12.444,25.113Z" transform="translate(1226 -843)"/></g><g data-type="innerShadowGroup"><path class="i" d="M-4030.632,1957.5H-4951a59.1,59.1,0,0,1,40.12-15.674c.756,0,1.5.014,2.2.04a59.1,59.1,0,0,1,32.737,11.288,140.153,140.153,0,0,1,21.827-24.128,139.733,139.733,0,0,1,26.844-18.454,138.3,138.3,0,0,1,30.816-11.794,138.83,138.83,0,0,1,33.742-4.15c1.709,0,3.435.031,5.129.093a139.13,139.13,0,0,1,39.141,7.184,119.667,119.667,0,0,1,18.667-23.1,119.533,119.533,0,0,1,23.753-17.776,118.037,118.037,0,0,1,27.759-11.42,118.163,118.163,0,0,1,30.674-4.036c1.462,0,2.934.026,4.375.078a118.566,118.566,0,0,1,38.6,8.033,203.531,203.531,0,0,1,8.834-35.6,203.187,203.187,0,0,1,14.739-32.76A204.355,204.355,0,0,1-4531.029,1756a205.176,205.176,0,0,1,24.667-25.31,204.831,204.831,0,0,1,28.691-20.706,203.209,203.209,0,0,1,32.09-15.516,202.367,202.367,0,0,1,34.86-9.74,204.327,204.327,0,0,1,37.007-3.376c2.494,0,5.027.046,7.53.137a199.11,199.11,0,0,1,28.668,3.139,208.893,208.893,0,0,1,27.289,6.961,260.04,260.04,0,0,1,13.949-41.538,261.057,261.057,0,0,1,20.364-38.027,262.6,262.6,0,0,1,26.109-33.89,263.339,263.339,0,0,1,31.177-29.13,262.86,262.86,0,0,1,35.579-23.744,260.973,260.973,0,0,1,39.307-17.732,259.9,259.9,0,0,1,87.107-14.937c3.218,0,6.467.059,9.658.175,5.434.2,10.933.568,16.346,1.1V1957.5Z" transform="translate(5951.131 -877)"/><g class="p" transform="matrix(1, 0, 0, 1, -10, 570.64)"><path class="j" d="M-4030.632,1957.5H-4951a59.1,59.1,0,0,1,40.12-15.674c.756,0,1.5.014,2.2.04a59.1,59.1,0,0,1,32.737,11.288,140.153,140.153,0,0,1,21.827-24.128,139.733,139.733,0,0,1,26.844-18.454,138.3,138.3,0,0,1,30.816-11.794,138.83,138.83,0,0,1,33.742-4.15c1.709,0,3.435.031,5.129.093a139.13,139.13,0,0,1,39.141,7.184,119.667,119.667,0,0,1,18.667-23.1,119.533,119.533,0,0,1,23.753-17.776,118.037,118.037,0,0,1,27.759-11.42,118.163,118.163,0,0,1,30.674-4.036c1.462,0,2.934.026,4.375.078a118.566,118.566,0,0,1,38.6,8.033,203.531,203.531,0,0,1,8.834-35.6,203.187,203.187,0,0,1,14.739-32.76A204.355,204.355,0,0,1-4531.029,1756a205.176,205.176,0,0,1,24.667-25.31,204.831,204.831,0,0,1,28.691-20.706,203.209,203.209,0,0,1,32.09-15.516,202.367,202.367,0,0,1,34.86-9.74,204.327,204.327,0,0,1,37.007-3.376c2.494,0,5.027.046,7.53.137a199.11,199.11,0,0,1,28.668,3.139,208.893,208.893,0,0,1,27.289,6.961,260.04,260.04,0,0,1,13.949-41.538,261.057,261.057,0,0,1,20.364-38.027,262.6,262.6,0,0,1,26.109-33.89,263.339,263.339,0,0,1,31.177-29.13,262.86,262.86,0,0,1,35.579-23.744,260.973,260.973,0,0,1,39.307-17.732,259.9,259.9,0,0,1,87.107-14.937c3.218,0,6.467.059,9.658.175,5.434.2,10.933.568,16.346,1.1V1957.5Z" transform="translate(5961.13 -1447.64)"/></g><path class="k" d="M-4030.632,1957.5H-4951a59.1,59.1,0,0,1,40.12-15.674c.756,0,1.5.014,2.2.04a59.1,59.1,0,0,1,32.737,11.288,140.153,140.153,0,0,1,21.827-24.128,139.733,139.733,0,0,1,26.844-18.454,138.3,138.3,0,0,1,30.816-11.794,138.83,138.83,0,0,1,33.742-4.15c1.709,0,3.435.031,5.129.093a139.13,139.13,0,0,1,39.141,7.184,119.667,119.667,0,0,1,18.667-23.1,119.533,119.533,0,0,1,23.753-17.776,118.037,118.037,0,0,1,27.759-11.42,118.163,118.163,0,0,1,30.674-4.036c1.462,0,2.934.026,4.375.078a118.566,118.566,0,0,1,38.6,8.033,203.531,203.531,0,0,1,8.834-35.6,203.187,203.187,0,0,1,14.739-32.76A204.355,204.355,0,0,1-4531.029,1756a205.176,205.176,0,0,1,24.667-25.31,204.831,204.831,0,0,1,28.691-20.706,203.209,203.209,0,0,1,32.09-15.516,202.367,202.367,0,0,1,34.86-9.74,204.327,204.327,0,0,1,37.007-3.376c2.494,0,5.027.046,7.53.137a199.11,199.11,0,0,1,28.668,3.139,208.893,208.893,0,0,1,27.289,6.961,260.04,260.04,0,0,1,13.949-41.538,261.057,261.057,0,0,1,20.364-38.027,262.6,262.6,0,0,1,26.109-33.89,263.339,263.339,0,0,1,31.177-29.13,262.86,262.86,0,0,1,35.579-23.744,260.973,260.973,0,0,1,39.307-17.732,259.9,259.9,0,0,1,87.107-14.937c3.218,0,6.467.059,9.658.175,5.434.2,10.933.568,16.346,1.1V1957.5Z" transform="translate(5951.131 -877)"/></g><g data-type="innerShadowGroup"><path class="l" d="M-3537.881,1197.945h-946.645a71.093,71.093,0,0,1,14.461-4.922,71.852,71.852,0,0,1,15.67-1.724,71.61,71.61,0,0,1,23.459,4,122.736,122.736,0,0,1,40.046-77.124,122.3,122.3,0,0,1,37.3-22.97,122.23,122.23,0,0,1,44.626-8.359,122.842,122.842,0,0,1,33.975,4.863,156.4,156.4,0,0,1,19.663-49.917,158.028,158.028,0,0,1,34.555-39.849,157.09,157.09,0,0,1,46.06-26.393,157.247,157.247,0,0,1,54.181-9.55,158.18,158.18,0,0,1,38.386,4.709,156.7,156.7,0,0,1,34.948,13.364,158.2,158.2,0,0,1,30.377,20.873,158.921,158.921,0,0,1,24.672,27.235A120.515,120.515,0,0,1-3957,1012.159a120.341,120.341,0,0,1,41.284-7.246,120.154,120.154,0,0,1,44.626,8.512,120.556,120.556,0,0,1,19.695,10.026,121.487,121.487,0,0,1,17.4,13.325,120.528,120.528,0,0,1,38.556,78.089,68.679,68.679,0,0,1,10.213-9.086,67.764,67.764,0,0,1,11.894-6.9,66.982,66.982,0,0,1,13.269-4.379,67.6,67.6,0,0,1,14.335-1.533,67.272,67.272,0,0,1,24.707,4.657,67.316,67.316,0,0,1,20.613,12.791,67.459,67.459,0,0,1,21.875,42.885,92.349,92.349,0,0,1,24.977-12.73,91.422,91.422,0,0,1,28.67-4.587,91.913,91.913,0,0,1,28.846,4.61,91.512,91.512,0,0,1,25.083,12.848,92.492,92.492,0,0,1,19.868,19.608,92.088,92.088,0,0,1,13.2,24.891Z" transform="translate(4951.5 -117.445)"/><g class="o" transform="matrix(1, 0, 0, 1, -10, 570.64)"><path class="m" d="M-3537.881,1197.945h-946.645a71.093,71.093,0,0,1,14.461-4.922,71.852,71.852,0,0,1,15.67-1.724,71.61,71.61,0,0,1,23.459,4,122.736,122.736,0,0,1,40.046-77.124,122.3,122.3,0,0,1,37.3-22.97,122.23,122.23,0,0,1,44.626-8.359,122.842,122.842,0,0,1,33.975,4.863,156.4,156.4,0,0,1,19.663-49.917,158.028,158.028,0,0,1,34.555-39.849,157.09,157.09,0,0,1,46.06-26.393,157.247,157.247,0,0,1,54.181-9.55,158.18,158.18,0,0,1,38.386,4.709,156.7,156.7,0,0,1,34.948,13.364,158.2,158.2,0,0,1,30.377,20.873,158.921,158.921,0,0,1,24.672,27.235A120.515,120.515,0,0,1-3957,1012.159a120.341,120.341,0,0,1,41.284-7.246,120.154,120.154,0,0,1,44.626,8.512,120.556,120.556,0,0,1,19.695,10.026,121.487,121.487,0,0,1,17.4,13.325,120.528,120.528,0,0,1,38.556,78.089,68.679,68.679,0,0,1,10.213-9.086,67.764,67.764,0,0,1,11.894-6.9,66.982,66.982,0,0,1,13.269-4.379,67.6,67.6,0,0,1,14.335-1.533,67.272,67.272,0,0,1,24.707,4.657,67.316,67.316,0,0,1,20.613,12.791,67.459,67.459,0,0,1,21.875,42.885,92.349,92.349,0,0,1,24.977-12.73,91.422,91.422,0,0,1,28.67-4.587,91.913,91.913,0,0,1,28.846,4.61,91.512,91.512,0,0,1,25.083,12.848,92.492,92.492,0,0,1,19.868,19.608,92.088,92.088,0,0,1,13.2,24.891Z" transform="translate(4961.5 -688.09)"/></g><path class="n" d="M-3537.881,1197.945h-946.645a71.093,71.093,0,0,1,14.461-4.922,71.852,71.852,0,0,1,15.67-1.724,71.61,71.61,0,0,1,23.459,4,122.736,122.736,0,0,1,40.046-77.124,122.3,122.3,0,0,1,37.3-22.97,122.23,122.23,0,0,1,44.626-8.359,122.842,122.842,0,0,1,33.975,4.863,156.4,156.4,0,0,1,19.663-49.917,158.028,158.028,0,0,1,34.555-39.849,157.09,157.09,0,0,1,46.06-26.393,157.247,157.247,0,0,1,54.181-9.55,158.18,158.18,0,0,1,38.386,4.709,156.7,156.7,0,0,1,34.948,13.364,158.2,158.2,0,0,1,30.377,20.873,158.921,158.921,0,0,1,24.672,27.235A120.515,120.515,0,0,1-3957,1012.159a120.341,120.341,0,0,1,41.284-7.246,120.154,120.154,0,0,1,44.626,8.512,120.556,120.556,0,0,1,19.695,10.026,121.487,121.487,0,0,1,17.4,13.325,120.528,120.528,0,0,1,38.556,78.089,68.679,68.679,0,0,1,10.213-9.086,67.764,67.764,0,0,1,11.894-6.9,66.982,66.982,0,0,1,13.269-4.379,67.6,67.6,0,0,1,14.335-1.533,67.272,67.272,0,0,1,24.707,4.657,67.316,67.316,0,0,1,20.613,12.791,67.459,67.459,0,0,1,21.875,42.885,92.349,92.349,0,0,1,24.977-12.73,91.422,91.422,0,0,1,28.67-4.587,91.913,91.913,0,0,1,28.846,4.61,91.512,91.512,0,0,1,25.083,12.848,92.492,92.492,0,0,1,19.868,19.608,92.088,92.088,0,0,1,13.2,24.891Z" transform="translate(4951.5 -117.445)"/></g></g></svg>