<svg xmlns="http://www.w3.org/2000/svg" xmlns:xlink="http://www.w3.org/1999/xlink" width="949.596" height="232.944" viewBox="0 0 949.596 232.944"><defs><style>.a{fill:#b6d1e8;}.b{fill:#fff;}.c{fill:none;stroke:rgba(0,0,0,0);stroke-miterlimit:10;}.d{filter:url(#a);}</style><filter id="a"><feOffset dy="3" input="SourceAlpha"/><feGaussianBlur stdDeviation="10" result="b"/><feFlood flood-opacity="0.161" result="c"/><feComposite operator="out" in="SourceGraphic" in2="b"/><feComposite operator="in" in="c"/><feComposite operator="in" in2="SourceGraphic"/></filter></defs><g data-type="innerShadowGroup"><path class="a" d="M-3537.881,1197.945h-946.645a71.093,71.093,0,0,1,14.461-4.922,71.852,71.852,0,0,1,15.67-1.724,71.61,71.61,0,0,1,23.459,4,122.736,122.736,0,0,1,40.046-77.124,122.3,122.3,0,0,1,37.3-22.97,122.23,122.23,0,0,1,44.626-8.359,122.842,122.842,0,0,1,33.975,4.863,156.4,156.4,0,0,1,19.663-49.917,158.028,158.028,0,0,1,34.555-39.849,157.09,157.09,0,0,1,46.06-26.393,157.247,157.247,0,0,1,54.181-9.55,158.18,158.18,0,0,1,38.386,4.709,156.7,156.7,0,0,1,34.948,13.364,158.2,158.2,0,0,1,30.377,20.873,158.921,158.921,0,0,1,24.672,27.235A120.515,120.515,0,0,1-3957,1012.159a120.341,120.341,0,0,1,41.284-7.246,120.154,120.154,0,0,1,44.626,8.512,120.556,120.556,0,0,1,19.695,10.026,121.487,121.487,0,0,1,17.4,13.325,120.528,120.528,0,0,1,38.556,78.089,68.679,68.679,0,0,1,10.213-9.086,67.764,67.764,0,0,1,11.894-6.9,66.982,66.982,0,0,1,13.269-4.379,67.6,67.6,0,0,1,14.335-1.533,67.272,67.272,0,0,1,24.707,4.657,67.316,67.316,0,0,1,20.613,12.791,67.459,67.459,0,0,1,21.875,42.885,92.349,92.349,0,0,1,24.977-12.73,91.422,91.422,0,0,1,28.67-4.587,91.913,91.913,0,0,1,28.846,4.61,91.512,91.512,0,0,1,25.083,12.848,92.492,92.492,0,0,1,19.868,19.608,92.088,92.088,0,0,1,13.2,24.891Z" transform="translate(4486.784 -965.501)"/><g class="d" transform="matrix(1, 0, 0, 1, 0, 0)"><path class="b" d="M-3537.881,1197.945h-946.645a71.093,71.093,0,0,1,14.461-4.922,71.852,71.852,0,0,1,15.67-1.724,71.61,71.61,0,0,1,23.459,4,122.736,122.736,0,0,1,40.046-77.124,122.3,122.3,0,0,1,37.3-22.97,122.23,122.23,0,0,1,44.626-8.359,122.842,122.842,0,0,1,33.975,4.863,156.4,156.4,0,0,1,19.663-49.917,158.028,158.028,0,0,1,34.555-39.849,157.09,157.09,0,0,1,46.06-26.393,157.247,157.247,0,0,1,54.181-9.55,158.18,158.18,0,0,1,38.386,4.709,156.7,156.7,0,0,1,34.948,13.364,158.2,158.2,0,0,1,30.377,20.873,158.921,158.921,0,0,1,24.672,27.235A120.515,120.515,0,0,1-3957,1012.159a120.341,120.341,0,0,1,41.284-7.246,120.154,120.154,0,0,1,44.626,8.512,120.556,120.556,0,0,1,19.695,10.026,121.487,121.487,0,0,1,17.4,13.325,120.528,120.528,0,0,1,38.556,78.089,68.679,68.679,0,0,1,10.213-9.086,67.764,67.764,0,0,1,11.894-6.9,66.982,66.982,0,0,1,13.269-4.379,67.6,67.6,0,0,1,14.335-1.533,67.272,67.272,0,0,1,24.707,4.657,67.316,67.316,0,0,1,20.613,12.791,67.459,67.459,0,0,1,21.875,42.885,92.349,92.349,0,0,1,24.977-12.73,91.422,91.422,0,0,1,28.67-4.587,91.913,91.913,0,0,1,28.846,4.61,91.512,91.512,0,0,1,25.083,12.848,92.492,92.492,0,0,1,19.868,19.608,92.088,92.088,0,0,1,13.2,24.891Z" transform="translate(4486.78 -965.5)"/></g><path class="c" d="M-3537.881,1197.945h-946.645a71.093,71.093,0,0,1,14.461-4.922,71.852,71.852,0,0,1,15.67-1.724,71.61,71.61,0,0,1,23.459,4,122.736,122.736,0,0,1,40.046-77.124,122.3,122.3,0,0,1,37.3-22.97,122.23,122.23,0,0,1,44.626-8.359,122.842,122.842,0,0,1,33.975,4.863,156.4,156.4,0,0,1,19.663-49.917,158.028,158.028,0,0,1,34.555-39.849,157.09,157.09,0,0,1,46.06-26.393,157.247,157.247,0,0,1,54.181-9.55,158.18,158.18,0,0,1,38.386,4.709,156.7,156.7,0,0,1,34.948,13.364,158.2,158.2,0,0,1,30.377,20.873,158.921,158.921,0,0,1,24.672,27.235A120.515,120.515,0,0,1-3957,1012.159a120.341,120.341,0,0,1,41.284-7.246,120.154,120.154,0,0,1,44.626,8.512,120.556,120.556,0,0,1,19.695,10.026,121.487,121.487,0,0,1,17.4,13.325,120.528,120.528,0,0,1,38.556,78.089,68.679,68.679,0,0,1,10.213-9.086,67.764,67.764,0,0,1,11.894-6.9,66.982,66.982,0,0,1,13.269-4.379,67.6,67.6,0,0,1,14.335-1.533,67.272,67.272,0,0,1,24.707,4.657,67.316,67.316,0,0,1,20.613,12.791,67.459,67.459,0,0,1,21.875,42.885,92.349,92.349,0,0,1,24.977-12.73,91.422,91.422,0,0,1,28.67-4.587,91.913,91.913,0,0,1,28.846,4.61,91.512,91.512,0,0,1,25.083,12.848,92.492,92.492,0,0,1,19.868,19.608,92.088,92.088,0,0,1,13.2,24.891Z" transform="translate(4486.784 -965.501)"/></g></svg>