<svg xmlns="http://www.w3.org/2000/svg" width="1095.36" height="510.359" viewBox="0 0 1095.36 510.359"><defs><style>.a{fill:#98b7d3;stroke:rgba(0,0,0,0);stroke-miterlimit:10;opacity:0.37;}</style></defs><path class="a" d="M-3704.5,1475.359h-761.069a87.1,87.1,0,0,1-6.526-14.23,77.659,77.659,0,0,1-14.576,14.23h-68.7c-.231-.171-.47-.35-.729-.547a77.772,77.772,0,0,1-14.212-14.189,96.319,96.319,0,0,1-11.168-18.393,59.821,59.821,0,0,1-7.748,8.373,50.206,50.206,0,0,1-8.854,6.324,41.154,41.154,0,0,1-20.224,5.391,40.422,40.422,0,0,1-13.251-2.248,45.717,45.717,0,0,1-12.009-6.366,56.486,56.486,0,0,1-10.349-9.915,69.476,69.476,0,0,1-8.263-12.894,432.434,432.434,0,0,1-54.624-8.414,249.881,249.881,0,0,1-43.289-13.5c-12.325-5.291-21.915-11.158-28.5-17.44-6.813-6.5-10.267-13.307-10.267-20.245,0-7.315,3.827-14.476,11.376-21.282,7.292-6.578,17.868-12.666,31.431-18.095,13.458-5.386,29.423-9.953,47.452-13.572a462.266,462.266,0,0,1,59.429-7.714c0-.171-.011-.345-.019-.5l0-.043v-.032c-.011-.219-.022-.451-.022-.681a94.229,94.229,0,0,1,4.3-28.484,83.489,83.489,0,0,1,5.052-12.431,73.341,73.341,0,0,1,6.69-10.83,62.5,62.5,0,0,1,8.109-8.937,52.511,52.511,0,0,1,9.307-6.747,42.949,42.949,0,0,1,21.33-5.751,41.989,41.989,0,0,1,14.515,2.605,48.24,48.24,0,0,1,13.039,7.35c8.071,6.311,14.858,15.344,19.625,26.122a101.665,101.665,0,0,1,7.124-27.6,82.575,82.575,0,0,1,13.515-22.159,61.065,61.065,0,0,1,18.451-14.744,48.059,48.059,0,0,1,21.929-5.353,48.2,48.2,0,0,1,23.519,6.213,58.656,58.656,0,0,1,10.312,7.294,69.879,69.879,0,0,1,9.05,9.667,59.059,59.059,0,0,1,17.754-14.566,45.468,45.468,0,0,1,21.207-5.32,45.024,45.024,0,0,1,15.662,2.92,104.985,104.985,0,0,1,25.586-42.05,111.345,111.345,0,0,1,20.015-16.116,107.974,107.974,0,0,1,23.766-11.212,95.986,95.986,0,0,1,30.013-4.965,81.571,81.571,0,0,1,24.372,3.633,71.787,71.787,0,0,1,20.858,10.41,125.319,125.319,0,0,1,12.958-27.465,100.587,100.587,0,0,1,18.091-21.455c14-12.393,30.327-18.944,47.2-18.944a66.054,66.054,0,0,1,23.792,4.567,229.328,229.328,0,0,1,24.613-48.326,184.136,184.136,0,0,1,33.321-37.614,143.98,143.98,0,0,1,40.2-24.4A122.989,122.989,0,0,1-3998.665,966a122.85,122.85,0,0,1,39.88,6.688,138.6,138.6,0,0,1,36.2,18.953,170.515,170.515,0,0,1,31.275,29.551,209.626,209.626,0,0,1,25.112,38.482,74.681,74.681,0,0,1,19.8-10.963,64.26,64.26,0,0,1,21.97-3.9c16.98,0,33.349,6.72,47.336,19.434a100.34,100.34,0,0,1,17.942,21.953,124.7,124.7,0,0,1,12.578,28.036,64.336,64.336,0,0,1,15.241-6.923,57.286,57.286,0,0,1,16.5-2.445,57.768,57.768,0,0,1,10.332.934v369.562Z" transform="translate(4799.359 -965.5)"/></svg>