<svg xmlns="http://www.w3.org/2000/svg" xmlns:xlink="http://www.w3.org/1999/xlink" width="922.15" height="465.911" viewBox="0 0 922.15 465.911"><defs><style>.a,.b,.c{opacity:0.74;}.a{fill:url(#a);}.b{fill:#fff;}.c{fill:none;stroke:rgba(0,0,0,0);stroke-miterlimit:10;}.d{filter:url(#b);}</style><linearGradient id="a" x1="0.5" x2="0.5" y2="1" gradientUnits="objectBoundingBox"><stop offset="0" stop-color="#6696be"/><stop offset="1" stop-color="#fff"/></linearGradient><filter id="b"><feOffset input="SourceAlpha"/><feGaussianBlur stdDeviation="6" result="c"/><feFlood flood-opacity="0.161" result="d"/><feComposite operator="out" in="SourceGraphic" in2="c"/><feComposite operator="in" in="d"/><feComposite operator="in" in2="SourceGraphic"/></filter></defs><g data-type="innerShadowGroup"><path class="a" d="M-4030.632,1957.5H-4951a59.1,59.1,0,0,1,40.12-15.674c.756,0,1.5.014,2.2.04a59.1,59.1,0,0,1,32.737,11.288,140.153,140.153,0,0,1,21.827-24.128,139.733,139.733,0,0,1,26.844-18.454,138.3,138.3,0,0,1,30.816-11.794,138.83,138.83,0,0,1,33.742-4.15c1.709,0,3.435.031,5.129.093a139.13,139.13,0,0,1,39.141,7.184,119.667,119.667,0,0,1,18.667-23.1,119.533,119.533,0,0,1,23.753-17.776,118.037,118.037,0,0,1,27.759-11.42,118.163,118.163,0,0,1,30.674-4.036c1.462,0,2.934.026,4.375.078a118.566,118.566,0,0,1,38.6,8.033,203.531,203.531,0,0,1,8.834-35.6,203.187,203.187,0,0,1,14.739-32.76A204.355,204.355,0,0,1-4531.029,1756a205.176,205.176,0,0,1,24.667-25.31,204.831,204.831,0,0,1,28.691-20.706,203.209,203.209,0,0,1,32.09-15.516,202.367,202.367,0,0,1,34.86-9.74,204.327,204.327,0,0,1,37.007-3.376c2.494,0,5.027.046,7.53.137a199.11,199.11,0,0,1,28.668,3.139,208.893,208.893,0,0,1,27.289,6.961,260.04,260.04,0,0,1,13.949-41.538,261.057,261.057,0,0,1,20.364-38.027,262.6,262.6,0,0,1,26.109-33.89,263.339,263.339,0,0,1,31.177-29.13,262.86,262.86,0,0,1,35.579-23.744,260.973,260.973,0,0,1,39.307-17.732,259.9,259.9,0,0,1,87.107-14.937c3.218,0,6.467.059,9.658.175,5.434.2,10.933.568,16.346,1.1V1957.5Z" transform="translate(4952.282 -1492.088)"/><g class="d" transform="matrix(1, 0, 0, 1, 0, 0)"><path class="b" d="M-4030.632,1957.5H-4951a59.1,59.1,0,0,1,40.12-15.674c.756,0,1.5.014,2.2.04a59.1,59.1,0,0,1,32.737,11.288,140.153,140.153,0,0,1,21.827-24.128,139.733,139.733,0,0,1,26.844-18.454,138.3,138.3,0,0,1,30.816-11.794,138.83,138.83,0,0,1,33.742-4.15c1.709,0,3.435.031,5.129.093a139.13,139.13,0,0,1,39.141,7.184,119.667,119.667,0,0,1,18.667-23.1,119.533,119.533,0,0,1,23.753-17.776,118.037,118.037,0,0,1,27.759-11.42,118.163,118.163,0,0,1,30.674-4.036c1.462,0,2.934.026,4.375.078a118.566,118.566,0,0,1,38.6,8.033,203.531,203.531,0,0,1,8.834-35.6,203.187,203.187,0,0,1,14.739-32.76A204.355,204.355,0,0,1-4531.029,1756a205.176,205.176,0,0,1,24.667-25.31,204.831,204.831,0,0,1,28.691-20.706,203.209,203.209,0,0,1,32.09-15.516,202.367,202.367,0,0,1,34.86-9.74,204.327,204.327,0,0,1,37.007-3.376c2.494,0,5.027.046,7.53.137a199.11,199.11,0,0,1,28.668,3.139,208.893,208.893,0,0,1,27.289,6.961,260.04,260.04,0,0,1,13.949-41.538,261.057,261.057,0,0,1,20.364-38.027,262.6,262.6,0,0,1,26.109-33.89,263.339,263.339,0,0,1,31.177-29.13,262.86,262.86,0,0,1,35.579-23.744,260.973,260.973,0,0,1,39.307-17.732,259.9,259.9,0,0,1,87.107-14.937c3.218,0,6.467.059,9.658.175,5.434.2,10.933.568,16.346,1.1V1957.5Z" transform="translate(4952.28 -1492.09)"/></g><path class="c" d="M-4030.632,1957.5H-4951a59.1,59.1,0,0,1,40.12-15.674c.756,0,1.5.014,2.2.04a59.1,59.1,0,0,1,32.737,11.288,140.153,140.153,0,0,1,21.827-24.128,139.733,139.733,0,0,1,26.844-18.454,138.3,138.3,0,0,1,30.816-11.794,138.83,138.83,0,0,1,33.742-4.15c1.709,0,3.435.031,5.129.093a139.13,139.13,0,0,1,39.141,7.184,119.667,119.667,0,0,1,18.667-23.1,119.533,119.533,0,0,1,23.753-17.776,118.037,118.037,0,0,1,27.759-11.42,118.163,118.163,0,0,1,30.674-4.036c1.462,0,2.934.026,4.375.078a118.566,118.566,0,0,1,38.6,8.033,203.531,203.531,0,0,1,8.834-35.6,203.187,203.187,0,0,1,14.739-32.76A204.355,204.355,0,0,1-4531.029,1756a205.176,205.176,0,0,1,24.667-25.31,204.831,204.831,0,0,1,28.691-20.706,203.209,203.209,0,0,1,32.09-15.516,202.367,202.367,0,0,1,34.86-9.74,204.327,204.327,0,0,1,37.007-3.376c2.494,0,5.027.046,7.53.137a199.11,199.11,0,0,1,28.668,3.139,208.893,208.893,0,0,1,27.289,6.961,260.04,260.04,0,0,1,13.949-41.538,261.057,261.057,0,0,1,20.364-38.027,262.6,262.6,0,0,1,26.109-33.89,263.339,263.339,0,0,1,31.177-29.13,262.86,262.86,0,0,1,35.579-23.744,260.973,260.973,0,0,1,39.307-17.732,259.9,259.9,0,0,1,87.107-14.937c3.218,0,6.467.059,9.658.175,5.434.2,10.933.568,16.346,1.1V1957.5Z" transform="translate(4952.282 -1492.088)"/></g></svg>