<svg xmlns="http://www.w3.org/2000/svg" xmlns:xlink="http://www.w3.org/1999/xlink" width="1118.505" height="461.85" viewBox="0 0 1118.505 461.85"><defs><style>.a,.b{fill:#9cbad4;}.a,.d{stroke:rgba(0,0,0,0);stroke-miterlimit:10;}.a,.b,.c,.d{opacity:0.44;}.c{fill:#fff;}.d{fill:none;}.e{filter:url(#c);}.f{filter:url(#a);}</style><filter id="a" x="0" y="0" width="1118.505" height="461.85" filterUnits="userSpaceOnUse"><feOffset dy="3" input="SourceAlpha"/><feGaussianBlur stdDeviation="3" result="b"/><feFlood flood-opacity="0.161"/><feComposite operator="in" in2="b"/></filter><filter id="c" x="0" y="0" width="1118.505" height="461.85" filterUnits="userSpaceOnUse"><feOffset input="SourceAlpha"/><feGaussianBlur stdDeviation="10" result="d"/><feFlood flood-opacity="0.161" result="e"/><feComposite operator="out" in="SourceGraphic" in2="d"/><feComposite operator="in" in="e"/><feComposite operator="in" in2="SourceGraphic"/></filter></defs><g data-type="innerShadowGroup"><g class="f" transform="matrix(1, 0, 0, 1, 0, 0)"><path class="a" d="M-3271.366,1737.5H-3947.5V1298.463c.632-.128,1.264-.252,1.882-.37a192.731,192.731,0,0,1,36.167-3.444,193.579,193.579,0,0,1,49.1,6.371,204.028,204.028,0,0,1,45.789,18.241,217.589,217.589,0,0,1,40.759,28.807,229.466,229.466,0,0,1,34.012,38.066,103.211,103.211,0,0,1,29.342-10.508,103.277,103.277,0,0,1,19.378-1.845,103.8,103.8,0,0,1,27.38,3.7,109.707,109.707,0,0,1,25.41,10.574,117.077,117.077,0,0,1,22.391,16.662,123.224,123.224,0,0,1,18.328,21.961,99.259,99.259,0,0,1,16.523-11.728,117.6,117.6,0,0,1,19.633-8.851,134.773,134.773,0,0,1,22.183-5.59,149.254,149.254,0,0,1,24.171-1.948c3.745,0,7.558.138,11.333.41a156.221,156.221,0,0,1,32.425,5.8,143.094,143.094,0,0,1,28.63,11.777c17.6,9.641,31.729,22.506,40.845,37.2a70.256,70.256,0,0,1,19.324-6.828,70.2,70.2,0,0,1,13.169-1.253,73.652,73.652,0,0,1,40.292,12.312,82.461,82.461,0,0,1,9.587-12.191,77.965,77.965,0,0,1,11.662-10.047,73.842,73.842,0,0,1,28.666-12.145,74.484,74.484,0,0,1,13.979-1.33,75.091,75.091,0,0,1,24.8,4.24,80.9,80.9,0,0,1,22.187,11.953,87.216,87.216,0,0,1,18.046,18.514,91.814,91.814,0,0,1,12.372,23.925,74.9,74.9,0,0,1,19.774-31.758,67.546,67.546,0,0,1,15.119-10.766,65.61,65.61,0,0,1,17.932-6.227,66.135,66.135,0,0,1,12.412-1.182,66.879,66.879,0,0,1,24.485,4.675,72.8,72.8,0,0,1,21.4,13.078,78.419,78.419,0,0,1,16.384,20.06,82.579,82.579,0,0,1,9.456,25.62c.038.208.066.424.089.608l0,.031c.027.216.057.445.1.668,16.486-2.226,32.749-3.924,48.333-5.048,15.291-1.1,30.059-1.664,43.894-1.664a402.023,402.023,0,0,1,43.106,2.125,202.477,202.477,0,0,1,33.915,6.284c9.676,2.8,17.385,6.274,22.914,10.313,5.691,4.158,9.089,8.939,10.1,14.211,1.373,7.168-1.669,15.046-9.042,23.416-7.13,8.094-18.159,16.491-32.779,24.958-14.47,8.382-32.084,16.62-52.352,24.484a680.139,680.139,0,0,1-67.766,21.989,73.213,73.213,0,0,1-7.95,15.334,68.876,68.876,0,0,1-11.19,12.761,64.714,64.714,0,0,1-14.006,9.5,63.21,63.21,0,0,1-16.4,5.547,63.294,63.294,0,0,1-11.891,1.133,64.044,64.044,0,0,1-20.455-3.379,69.029,69.029,0,0,1-18.434-9.534,100.06,100.06,0,0,1-10.557,21.72,93.726,93.726,0,0,1-15.256,18.118,87.667,87.667,0,0,1-19.344,13.49,85.337,85.337,0,0,1-22.821,7.835,85.362,85.362,0,0,1-16.027,1.527,86.521,86.521,0,0,1-26.906-4.326,93.644,93.644,0,0,1-24.382-12.2,83.382,83.382,0,0,1-9.472,23.944,76.977,76.977,0,0,1-16.02,19.261Z" transform="translate(3957 -1288.15)"/></g><path class="b" d="M-3271.366,1737.5H-3947.5V1298.463c.632-.128,1.264-.252,1.882-.37a192.731,192.731,0,0,1,36.167-3.444,193.579,193.579,0,0,1,49.1,6.371,204.028,204.028,0,0,1,45.789,18.241,217.589,217.589,0,0,1,40.759,28.807,229.466,229.466,0,0,1,34.012,38.066,103.211,103.211,0,0,1,29.342-10.508,103.277,103.277,0,0,1,19.378-1.845,103.8,103.8,0,0,1,27.38,3.7,109.707,109.707,0,0,1,25.41,10.574,117.077,117.077,0,0,1,22.391,16.662,123.224,123.224,0,0,1,18.328,21.961,99.259,99.259,0,0,1,16.523-11.728,117.6,117.6,0,0,1,19.633-8.851,134.773,134.773,0,0,1,22.183-5.59,149.254,149.254,0,0,1,24.171-1.948c3.745,0,7.558.138,11.333.41a156.221,156.221,0,0,1,32.425,5.8,143.094,143.094,0,0,1,28.63,11.777c17.6,9.641,31.729,22.506,40.845,37.2a70.256,70.256,0,0,1,19.324-6.828,70.2,70.2,0,0,1,13.169-1.253,73.652,73.652,0,0,1,40.292,12.312,82.461,82.461,0,0,1,9.587-12.191,77.965,77.965,0,0,1,11.662-10.047,73.842,73.842,0,0,1,28.666-12.145,74.484,74.484,0,0,1,13.979-1.33,75.091,75.091,0,0,1,24.8,4.24,80.9,80.9,0,0,1,22.187,11.953,87.216,87.216,0,0,1,18.046,18.514,91.814,91.814,0,0,1,12.372,23.925,74.9,74.9,0,0,1,19.774-31.758,67.546,67.546,0,0,1,15.119-10.766,65.61,65.61,0,0,1,17.932-6.227,66.135,66.135,0,0,1,12.412-1.182,66.879,66.879,0,0,1,24.485,4.675,72.8,72.8,0,0,1,21.4,13.078,78.419,78.419,0,0,1,16.384,20.06,82.579,82.579,0,0,1,9.456,25.62c.038.208.066.424.089.608l0,.031c.027.216.057.445.1.668,16.486-2.226,32.749-3.924,48.333-5.048,15.291-1.1,30.059-1.664,43.894-1.664a402.023,402.023,0,0,1,43.106,2.125,202.477,202.477,0,0,1,33.915,6.284c9.676,2.8,17.385,6.274,22.914,10.313,5.691,4.158,9.089,8.939,10.1,14.211,1.373,7.168-1.669,15.046-9.042,23.416-7.13,8.094-18.159,16.491-32.779,24.958-14.47,8.382-32.084,16.62-52.352,24.484a680.139,680.139,0,0,1-67.766,21.989,73.213,73.213,0,0,1-7.95,15.334,68.876,68.876,0,0,1-11.19,12.761,64.714,64.714,0,0,1-14.006,9.5,63.21,63.21,0,0,1-16.4,5.547,63.294,63.294,0,0,1-11.891,1.133,64.044,64.044,0,0,1-20.455-3.379,69.029,69.029,0,0,1-18.434-9.534,100.06,100.06,0,0,1-10.557,21.72,93.726,93.726,0,0,1-15.256,18.118,87.667,87.667,0,0,1-19.344,13.49,85.337,85.337,0,0,1-22.821,7.835,85.362,85.362,0,0,1-16.027,1.527,86.521,86.521,0,0,1-26.906-4.326,93.644,93.644,0,0,1-24.382-12.2,83.382,83.382,0,0,1-9.472,23.944,76.977,76.977,0,0,1-16.02,19.261Z" transform="translate(3957 -1288.149)"/><g class="e" transform="matrix(1, 0, 0, 1, 0, 0)"><path class="c" d="M-3271.366,1737.5H-3947.5V1298.463c.632-.128,1.264-.252,1.882-.37a192.731,192.731,0,0,1,36.167-3.444,193.579,193.579,0,0,1,49.1,6.371,204.028,204.028,0,0,1,45.789,18.241,217.589,217.589,0,0,1,40.759,28.807,229.466,229.466,0,0,1,34.012,38.066,103.211,103.211,0,0,1,29.342-10.508,103.277,103.277,0,0,1,19.378-1.845,103.8,103.8,0,0,1,27.38,3.7,109.707,109.707,0,0,1,25.41,10.574,117.077,117.077,0,0,1,22.391,16.662,123.224,123.224,0,0,1,18.328,21.961,99.259,99.259,0,0,1,16.523-11.728,117.6,117.6,0,0,1,19.633-8.851,134.773,134.773,0,0,1,22.183-5.59,149.254,149.254,0,0,1,24.171-1.948c3.745,0,7.558.138,11.333.41a156.221,156.221,0,0,1,32.425,5.8,143.094,143.094,0,0,1,28.63,11.777c17.6,9.641,31.729,22.506,40.845,37.2a70.256,70.256,0,0,1,19.324-6.828,70.2,70.2,0,0,1,13.169-1.253,73.652,73.652,0,0,1,40.292,12.312,82.461,82.461,0,0,1,9.587-12.191,77.965,77.965,0,0,1,11.662-10.047,73.842,73.842,0,0,1,28.666-12.145,74.484,74.484,0,0,1,13.979-1.33,75.091,75.091,0,0,1,24.8,4.24,80.9,80.9,0,0,1,22.187,11.953,87.216,87.216,0,0,1,18.046,18.514,91.814,91.814,0,0,1,12.372,23.925,74.9,74.9,0,0,1,19.774-31.758,67.546,67.546,0,0,1,15.119-10.766,65.61,65.61,0,0,1,17.932-6.227,66.135,66.135,0,0,1,12.412-1.182,66.879,66.879,0,0,1,24.485,4.675,72.8,72.8,0,0,1,21.4,13.078,78.419,78.419,0,0,1,16.384,20.06,82.579,82.579,0,0,1,9.456,25.62c.038.208.066.424.089.608l0,.031c.027.216.057.445.1.668,16.486-2.226,32.749-3.924,48.333-5.048,15.291-1.1,30.059-1.664,43.894-1.664a402.023,402.023,0,0,1,43.106,2.125,202.477,202.477,0,0,1,33.915,6.284c9.676,2.8,17.385,6.274,22.914,10.313,5.691,4.158,9.089,8.939,10.1,14.211,1.373,7.168-1.669,15.046-9.042,23.416-7.13,8.094-18.159,16.491-32.779,24.958-14.47,8.382-32.084,16.62-52.352,24.484a680.139,680.139,0,0,1-67.766,21.989,73.213,73.213,0,0,1-7.95,15.334,68.876,68.876,0,0,1-11.19,12.761,64.714,64.714,0,0,1-14.006,9.5,63.21,63.21,0,0,1-16.4,5.547,63.294,63.294,0,0,1-11.891,1.133,64.044,64.044,0,0,1-20.455-3.379,69.029,69.029,0,0,1-18.434-9.534,100.06,100.06,0,0,1-10.557,21.72,93.726,93.726,0,0,1-15.256,18.118,87.667,87.667,0,0,1-19.344,13.49,85.337,85.337,0,0,1-22.821,7.835,85.362,85.362,0,0,1-16.027,1.527,86.521,86.521,0,0,1-26.906-4.326,93.644,93.644,0,0,1-24.382-12.2,83.382,83.382,0,0,1-9.472,23.944,76.977,76.977,0,0,1-16.02,19.261Z" transform="translate(3957 -1288.15)"/></g><path class="d" d="M-3271.366,1737.5H-3947.5V1298.463c.632-.128,1.264-.252,1.882-.37a192.731,192.731,0,0,1,36.167-3.444,193.579,193.579,0,0,1,49.1,6.371,204.028,204.028,0,0,1,45.789,18.241,217.589,217.589,0,0,1,40.759,28.807,229.466,229.466,0,0,1,34.012,38.066,103.211,103.211,0,0,1,29.342-10.508,103.277,103.277,0,0,1,19.378-1.845,103.8,103.8,0,0,1,27.38,3.7,109.707,109.707,0,0,1,25.41,10.574,117.077,117.077,0,0,1,22.391,16.662,123.224,123.224,0,0,1,18.328,21.961,99.259,99.259,0,0,1,16.523-11.728,117.6,117.6,0,0,1,19.633-8.851,134.773,134.773,0,0,1,22.183-5.59,149.254,149.254,0,0,1,24.171-1.948c3.745,0,7.558.138,11.333.41a156.221,156.221,0,0,1,32.425,5.8,143.094,143.094,0,0,1,28.63,11.777c17.6,9.641,31.729,22.506,40.845,37.2a70.256,70.256,0,0,1,19.324-6.828,70.2,70.2,0,0,1,13.169-1.253,73.652,73.652,0,0,1,40.292,12.312,82.461,82.461,0,0,1,9.587-12.191,77.965,77.965,0,0,1,11.662-10.047,73.842,73.842,0,0,1,28.666-12.145,74.484,74.484,0,0,1,13.979-1.33,75.091,75.091,0,0,1,24.8,4.24,80.9,80.9,0,0,1,22.187,11.953,87.216,87.216,0,0,1,18.046,18.514,91.814,91.814,0,0,1,12.372,23.925,74.9,74.9,0,0,1,19.774-31.758,67.546,67.546,0,0,1,15.119-10.766,65.61,65.61,0,0,1,17.932-6.227,66.135,66.135,0,0,1,12.412-1.182,66.879,66.879,0,0,1,24.485,4.675,72.8,72.8,0,0,1,21.4,13.078,78.419,78.419,0,0,1,16.384,20.06,82.579,82.579,0,0,1,9.456,25.62c.038.208.066.424.089.608l0,.031c.027.216.057.445.1.668,16.486-2.226,32.749-3.924,48.333-5.048,15.291-1.1,30.059-1.664,43.894-1.664a402.023,402.023,0,0,1,43.106,2.125,202.477,202.477,0,0,1,33.915,6.284c9.676,2.8,17.385,6.274,22.914,10.313,5.691,4.158,9.089,8.939,10.1,14.211,1.373,7.168-1.669,15.046-9.042,23.416-7.13,8.094-18.159,16.491-32.779,24.958-14.47,8.382-32.084,16.62-52.352,24.484a680.139,680.139,0,0,1-67.766,21.989,73.213,73.213,0,0,1-7.95,15.334,68.876,68.876,0,0,1-11.19,12.761,64.714,64.714,0,0,1-14.006,9.5,63.21,63.21,0,0,1-16.4,5.547,63.294,63.294,0,0,1-11.891,1.133,64.044,64.044,0,0,1-20.455-3.379,69.029,69.029,0,0,1-18.434-9.534,100.06,100.06,0,0,1-10.557,21.72,93.726,93.726,0,0,1-15.256,18.118,87.667,87.667,0,0,1-19.344,13.49,85.337,85.337,0,0,1-22.821,7.835,85.362,85.362,0,0,1-16.027,1.527,86.521,86.521,0,0,1-26.906-4.326,93.644,93.644,0,0,1-24.382-12.2,83.382,83.382,0,0,1-9.472,23.944,76.977,76.977,0,0,1-16.02,19.261Z" transform="translate(3957 -1288.149)"/></g></svg>