<svg xmlns="http://www.w3.org/2000/svg" xmlns:xlink="http://www.w3.org/1999/xlink" width="670.63" height="314.073" viewBox="0 0 670.63 314.073"><defs><style>.a{fill:#9cbad4;}.a,.b,.c{opacity:0.66;}.b{fill:#fff;}.c{fill:none;stroke:rgba(0,0,0,0);stroke-miterlimit:10;}.d{filter:url(#a);}</style><filter id="a"><feOffset dy="3" input="SourceAlpha"/><feGaussianBlur stdDeviation="10" result="b"/><feFlood flood-opacity="0.161" result="c"/><feComposite operator="out" in="SourceGraphic" in2="b"/><feComposite operator="in" in="c"/><feComposite operator="in" in2="SourceGraphic"/></filter></defs><g data-type="innerShadowGroup"><path class="a" d="M-557.084,1923.5H-1226.5V1610.671a140.2,140.2,0,0,1,17.065,8.362,146.766,146.766,0,0,1,28.2,21.249,156.132,156.132,0,0,1,22.835,27.713,134.872,134.872,0,0,1,19.527-19.3,126.962,126.962,0,0,1,22.864-14.659,120.55,120.55,0,0,1,25.584-9.311,119.046,119.046,0,0,1,27.687-3.26,120.652,120.652,0,0,1,70.4,22.812,133.118,133.118,0,0,1,27.067,25.857,142.173,142.173,0,0,1,19.5,33.129,206.4,206.4,0,0,1,24.562-5.007,185.121,185.121,0,0,1,25.479-1.793,193.89,193.89,0,0,1,72.065,13.834,201.522,201.522,0,0,1,32.248,16.37,210.771,210.771,0,0,1,28.972,21.85,220.446,220.446,0,0,1,25.128,26.717A228.774,228.774,0,0,1-716.6,1806.2a235.336,235.336,0,0,1,15.739,34.6,240.951,240.951,0,0,1,10.194,37.621c.114.214.241.429.372.65l.009.017c.085.142.2.33.3.526a84.387,84.387,0,0,1,23.865-13.63,79.554,79.554,0,0,1,27.6-4.93,80.148,80.148,0,0,1,26.911,4.638,83.662,83.662,0,0,1,23.451,12.933,90.47,90.47,0,0,1,18.629,19.761,96.184,96.184,0,0,1,12.444,25.113Z" transform="translate(1227 -1609.927)"/><g class="d" transform="matrix(1, 0, 0, 1, 0, 0)"><path class="b" d="M-557.084,1923.5H-1226.5V1610.671a140.2,140.2,0,0,1,17.065,8.362,146.766,146.766,0,0,1,28.2,21.249,156.132,156.132,0,0,1,22.835,27.713,134.872,134.872,0,0,1,19.527-19.3,126.962,126.962,0,0,1,22.864-14.659,120.55,120.55,0,0,1,25.584-9.311,119.046,119.046,0,0,1,27.687-3.26,120.652,120.652,0,0,1,70.4,22.812,133.118,133.118,0,0,1,27.067,25.857,142.173,142.173,0,0,1,19.5,33.129,206.4,206.4,0,0,1,24.562-5.007,185.121,185.121,0,0,1,25.479-1.793,193.89,193.89,0,0,1,72.065,13.834,201.522,201.522,0,0,1,32.248,16.37,210.771,210.771,0,0,1,28.972,21.85,220.446,220.446,0,0,1,25.128,26.717A228.774,228.774,0,0,1-716.6,1806.2a235.336,235.336,0,0,1,15.739,34.6,240.951,240.951,0,0,1,10.194,37.621c.114.214.241.429.372.65l.009.017c.085.142.2.33.3.526a84.387,84.387,0,0,1,23.865-13.63,79.554,79.554,0,0,1,27.6-4.93,80.148,80.148,0,0,1,26.911,4.638,83.662,83.662,0,0,1,23.451,12.933,90.47,90.47,0,0,1,18.629,19.761,96.184,96.184,0,0,1,12.444,25.113Z" transform="translate(1227 -1609.93)"/></g><path class="c" d="M-557.084,1923.5H-1226.5V1610.671a140.2,140.2,0,0,1,17.065,8.362,146.766,146.766,0,0,1,28.2,21.249,156.132,156.132,0,0,1,22.835,27.713,134.872,134.872,0,0,1,19.527-19.3,126.962,126.962,0,0,1,22.864-14.659,120.55,120.55,0,0,1,25.584-9.311,119.046,119.046,0,0,1,27.687-3.26,120.652,120.652,0,0,1,70.4,22.812,133.118,133.118,0,0,1,27.067,25.857,142.173,142.173,0,0,1,19.5,33.129,206.4,206.4,0,0,1,24.562-5.007,185.121,185.121,0,0,1,25.479-1.793,193.89,193.89,0,0,1,72.065,13.834,201.522,201.522,0,0,1,32.248,16.37,210.771,210.771,0,0,1,28.972,21.85,220.446,220.446,0,0,1,25.128,26.717A228.774,228.774,0,0,1-716.6,1806.2a235.336,235.336,0,0,1,15.739,34.6,240.951,240.951,0,0,1,10.194,37.621c.114.214.241.429.372.65l.009.017c.085.142.2.33.3.526a84.387,84.387,0,0,1,23.865-13.63,79.554,79.554,0,0,1,27.6-4.93,80.148,80.148,0,0,1,26.911,4.638,83.662,83.662,0,0,1,23.451,12.933,90.47,90.47,0,0,1,18.629,19.761,96.184,96.184,0,0,1,12.444,25.113Z" transform="translate(1227 -1609.927)"/></g></svg>